<svg xmlns="http://www.w3.org/2000/svg" version="1.0" viewBox="0 0 2048 2048"><path fill="#0284c7" d="M1105.1 513.1c-22.7 2-46 10.1-65.6 22.7-9.4 6-26.5 20.3-35 29.3-15.8 16.6-32.5 40.9-49.6 71.9-45.3 81.9-81.1 217.8-97.4 369-1.7 16.3-5.2 58.2-6 73.5-.4 6-.8 12.3-1 14-.2 1.6-.9 15.9-1.5 31.7-.9 21.6-.9 36.8-.1 60.5 1 25.6.9 31.9-.1 32.8-6.3 5.8-23 20.7-25.9 23-1.9 1.7-7.1 6-11.5 9.7-36.3 30.3-89.5 67.2-124.6 86.2-9.2 5-17.7 13.1-21.3 20.3-2.7 5.2-3 6.8-3 15.3 0 8.8.3 10.1 3.3 16.2 3.9 8.1 11.2 14.8 19.2 18 7.3 2.9 18.5 3.1 25.5.4 6.2-2.3 44.3-25.1 67-40.1 20.5-13.5 62.2-44.5 74-55 4.7-4.2 8.9-7.4 9.4-7.1s1.2 2.3 1.6 4.3c4.9 27.3 17.5 64.6 30.4 90.3 8.7 17.3 24.8 42 33.2 51 1.3 1.4 6.4 6.9 11.3 12.3 30.3 33.3 75.2 56.6 123.6 64.1 50.7 7.9 98.1 1.8 149-19.1 11.8-4.8 35.4-17.3 48.2-25.4 10.7-6.7 33.4-23.5 35.8-26.4 1.1-1.4 5-2.2 5-1 0 1.3-3.2 21.9-4.6 30.4-4 22.8 2.4 38.4 19.1 46.3 20.3 9.5 42.9-.1 50.4-21.3.7-1.9 2.8-14.7 4.7-28.4 1.9-13.8 3.9-27.5 4.4-30.5s1.4-8.9 2-13c.5-4.1 2.8-19.9 5-35 6.1-41.1 6.6-45.9 5.3-53.7-1.7-9.8-5.7-16.8-12.7-22.5-11.4-9.2-14.2-9.4-70.1-6.5-34 1.8-46 2.4-67 3.2-34.8 1.3-35.9 1.4-43.3 5-13 6.2-19.6 16.8-19.7 31.5 0 13.7 4.7 23.1 15.6 30.6 8.9 6.2 12.6 6.8 38.6 6 14.2-.4 22.3-.3 22.3.3 0 1.6-13 11.5-27.7 21.2-23.1 15.1-48.3 26.5-72.1 32.4-36.5 9.3-67.8 8.3-102-3.1-19.2-6.4-35.9-16.3-50.1-29.9-33.8-32.4-56.4-81.7-67.1-146-.7-3.9-1.6-9.2-2.1-11.8s-.9-6.9-.9-9.5v-4.7l14.6-14.5c16.2-16.1 56.8-58.8 61.7-64.9 1.8-2.1 8.6-10.1 15.2-17.7 11.4-13.1 41.7-50.7 51.6-63.9 19.5-26.1 52.8-74.7 65.9-96.3 2.5-4.1 6.8-11 9.6-15.5 17.9-28.9 30.9-52.6 46.2-83.7 12.8-26.3 14.2-29.2 24-52.5 10-23.8 23.2-63.9 28.5-86.5 8.8-37.7 11.2-57.5 10.4-89.2-.5-26.4-2.6-40.1-8.8-58.3-5.2-15.3-10.2-25.1-18.1-35.6-16-21.5-30.7-33.9-51.3-43.5-19.6-9-47.2-13.4-71.4-11.3m30.3 74.4c24.9 6.5 40.6 27.5 44.6 59.8 2 15.4.8 44.8-2.4 63.2-10.8 60.5-38 128.1-82.4 204.5-13 22.4-44.3 70.7-58 89.5-16.9 23.2-39.8 53.5-51.8 68.5-23.3 29.2-61.2 73-63 73-1.2 0 1.9-64.6 4.6-96 .7-9.1 6.2-59 7.5-69 11.1-84.3 25.5-152.5 45.1-214 12.1-37.6 32.6-85.4 46.2-107.7 27.5-44.8 47.9-64.6 73.6-71.3 9.1-2.4 27.7-2.7 36-.5"/></svg>