<svg xmlns="http://www.w3.org/2000/svg" width="960" height="960" viewBox="0 0 960 960">
<g>
<path d="M 0.00 480.00 L 0.00 0.00 L 480.00 0.00 L 960.00 0.00 L 960.00 480.00 L 960.00 960.00 L 480.00 960.00 L 0.00 960.00 L 0.00 480.00 ZM 900.06 941.44 C901.91,939.47 902.59,937.39 903.00,932.45 L 903.54 926.03 L 899.27 930.22 C894.42,934.99 894.00,935.70 897.33,933.52 C899.95,931.80 901.00,932.35 901.00,935.44 C901.00,939.43 898.23,942.00 893.94,942.00 C891.77,942.00 890.00,942.45 890.00,943.00 C890.00,943.55 891.72,944.00 893.83,944.00 C896.64,944.00 898.29,943.32 900.06,941.44 ZM 887.29 936.77 C886.68,931.18 889.39,928.01 894.79,927.97 C897.85,927.94 898.18,927.76 896.71,926.90 C894.11,925.38 889.33,926.77 887.01,929.71 C884.98,932.29 884.52,935.62 885.63,939.74 C886.62,943.44 887.79,941.34 887.29,936.77 ZM 920.19 938.47 C921.71,935.16 920.25,933.57 916.92,934.91 C914.52,935.86 914.52,935.87 916.75,935.94 C919.35,936.01 919.78,938.48 917.36,939.42 C913.43,940.92 910.49,937.88 911.60,933.46 C912.33,930.55 915.18,929.49 918.08,931.04 C919.81,931.97 920.14,931.93 919.79,930.85 C919.08,928.70 912.82,928.53 911.29,930.61 C909.53,933.03 909.67,937.52 911.57,939.43 C914.11,941.97 918.84,941.45 920.19,938.47 ZM 926.64 933.36 C928.41,931.91 928.41,931.86 926.67,932.42 C925.66,932.74 924.42,933.00 923.92,933.00 C923.41,933.00 923.05,934.91 923.10,937.25 L 923.20 941.50 L 923.99 938.19 C924.42,936.38 925.61,934.20 926.64,933.36 ZM 935.80 939.80 C937.46,938.14 937.30,934.50 935.51,933.01 C933.51,931.35 929.28,932.53 928.51,934.96 C927.10,939.41 932.57,943.03 935.80,939.80 ZM 940.91 937.00 C941.34,937.00 942.50,937.90 943.50,939.00 C944.50,940.10 945.77,941.00 946.33,941.00 C946.89,941.00 946.36,939.94 945.14,938.65 C943.18,936.57 943.11,936.16 944.47,935.03 C945.31,934.33 946.00,933.28 946.00,932.70 C946.00,932.12 944.96,932.63 943.69,933.83 C940.56,936.76 940.18,936.61 939.73,932.25 C939.51,930.19 939.32,931.42 939.30,935.00 C939.29,938.58 939.47,940.49 939.71,939.25 C939.94,938.01 940.49,937.00 940.91,937.00 ZM 544.00 713.54 C596.33,706.62 643.71,678.91 676.25,636.20 C689.06,619.39 701.55,596.34 707.54,578.46 C709.01,574.08 710.63,569.71 711.14,568.75 C711.67,567.75 711.69,567.00 711.18,567.00 C710.69,567.00 708.58,569.76 706.50,573.14 C701.55,581.15 689.89,595.09 682.43,601.92 C666.49,616.50 653.41,625.48 635.50,634.13 C611.54,645.70 593.22,650.00 564.73,650.75 C544.08,651.29 532.78,650.27 517.02,646.46 C499.50,642.21 488.96,638.07 462.00,624.82 C423.13,605.72 407.86,600.03 380.38,594.40 C368.12,591.89 334.53,591.37 319.50,593.45 C275.40,599.56 235.70,619.36 202.00,652.05 C196.15,657.72 195.90,658.12 199.50,656.00 C201.70,654.71 204.62,652.88 206.00,651.94 C207.38,650.99 213.00,647.97 218.50,645.22 C263.16,622.85 308.74,616.74 357.47,626.58 C376.89,630.50 401.28,639.30 439.00,655.96 C497.71,681.91 547.74,688.88 593.00,677.41 C595.40,676.80 595.42,676.83 593.50,678.22 C590.41,680.47 577.34,685.62 567.55,688.46 C551.10,693.22 536.10,695.28 517.50,695.30 C482.31,695.35 459.80,689.80 406.50,667.94 C357.37,647.78 327.39,641.45 291.14,643.57 C277.92,644.34 277.70,644.39 284.00,645.16 C323.22,649.93 343.97,656.60 388.77,678.84 C418.28,693.49 428.57,698.07 444.42,703.59 C476.98,714.94 509.09,718.15 544.00,713.54 ZM 575.03 620.96 C612.37,616.36 644.78,598.48 666.48,570.50 C679.83,553.29 687.89,535.26 693.15,510.84 C695.07,501.94 695.38,497.43 695.40,478.50 C695.41,459.52 695.12,455.11 693.22,446.40 C683.52,401.81 658.59,368.96 620.50,350.56 C562.90,322.73 491.38,336.10 451.33,382.17 C430.49,406.15 419.71,434.77 417.49,472.00 C415.81,500.28 422.79,531.24 436.10,554.50 C456.96,590.95 491.69,614.13 535.00,620.53 C545.75,622.11 564.04,622.31 575.03,620.96 ZM 321.00 567.03 C332.81,565.19 348.22,564.72 357.50,565.91 C362.45,566.55 368.64,567.34 371.25,567.67 L 376.00 568.28 L 376.00 406.64 L 376.00 245.00 L 342.50 245.00 L 309.00 245.00 L 309.00 407.08 L 309.00 569.16 L 311.75 568.60 C313.26,568.29 317.42,567.58 321.00,567.03 ZM 930.50 938.01 C929.70,935.49 930.61,934.00 932.94,934.00 C935.08,934.00 936.26,937.34 934.68,938.92 C933.01,940.59 931.20,940.20 930.50,938.01 ZM 541.51 567.45 C519.75,561.97 501.40,543.76 493.21,519.50 C485.84,497.69 485.20,469.74 491.53,446.08 C500.98,410.78 527.95,388.63 559.50,390.26 C590.11,391.84 614.52,414.60 623.59,450.02 C625.20,456.32 625.49,460.96 625.44,479.50 C625.38,500.09 625.20,502.14 622.70,511.42 C615.37,538.64 600.11,556.88 577.68,565.24 C570.77,567.81 567.79,568.34 558.50,568.62 C551.00,568.85 545.59,568.47 541.51,567.45 Z" fill="rgba(0,0,0,1)"/>
</g>
</svg>